# xmcd
#
# Track frame offsets:
#	180
#	17428
#	37020
#	56503
#	72930
#	87849
#	103521
#	119785
#	137553
#	150821
#	173550
#	191466
#	202868
#	216667
#	233158
#
# Disc length: 3319 seconds
#
# Revision: 1
# Processed by: cddbd v1.5.2PL0 Copyright (c) Steve Scherf et al.
# Submitted via: audiograbber 1.83.01
#
DISCID=c40cf50f
DTITLE=SC - SC8175
DYEAR=1900
DGENRE=Karaoke
TTITLE0=Tillis, Pam - Shake The Sugar Tree
TTITLE1=McEntire, Reba - For My Broken Heart
TTITLE2=White, Lari - Lead Me Not
TTITLE3=Tucker, Tanya - Hangin' On
TTITLE4=Lawrence, Tracy - Runnin' Behind
TTITLE5=Carpenter, Mary Chapin - Going Out Tonight
TTITLE6=Kershaw, Sammy - Third Rate Romance
TTITLE7=Ketchum, Hal - That's What I Get
TTITLE8=Yearwood, Trisha - Wrong Side Of Memphis
TTITLE9=Wynonna - She Is His Only Need
TTITLE10=Cyrus, Billy Ray - Somebody New
TTITLE11=Strait, George - Heartland
TTITLE12=Walker, Clay - What's It To You
TTITLE13=Alabama - Hometown Honeymoon
TTITLE14=Diamond Rio - Love A Little Stronger
EXTD=
EXTT0=
EXTT1=
EXTT2=
EXTT3=
EXTT4=
EXTT5=
EXTT6=
EXTT7=
EXTT8=
EXTT9=
EXTT10=
EXTT11=
EXTT12=
EXTT13=
EXTT14=
PLAYORDER=
